<svg xmlns="http://www.w3.org/2000/svg" viewBox="0 0 533.95 213.79"><defs><style>.cls-1{fill:#fbcc07}</style></defs><title>logo svg</title><g id="Layer_2" data-name="Layer 2"><g id="Layer_1-2" data-name="Layer 1"><path class="cls-1" d="M0,264.2Q63.71,157.75,125.89,50.41h21.39A1200.19,1200.19,0,0,0,106.16,226,1076.56,1076.56,0,0,0,202.57,50.41h21.19q-21.28,107-43.43,213.79h-30.5c14-50.53,27.79-101.1,41-151.85-25.45,53.52-55.65,103.51-89.89,151.85H79.44c7.21-52.08,18.73-103.14,33.25-153.66-26.42,51.7-54,102.74-81.85,153.66Z" transform="translate(0 -50.41)"/><path class="cls-1" d="M223.91,264.2Q238.47,157.39,251.7,50.41h21.39q-5.86,106.9-12,213.79Z" transform="translate(0 -50.41)"/><path class="cls-1" d="M346.58,264.2q-4.25-38.84-8.61-77.68C317.43,142.44,300.4,97.6,288.49,50.41h20.23A841.78,841.78,0,0,0,348.09,150.5a717.73,717.73,0,0,0,8-100.09h20.42c2.36,45.42-.75,90-7.8,134.91q7.16,39.41,14,78.87Z" transform="translate(0 -50.41)"/><path class="cls-1" d="M496.08,264.2c-25.23-64.75-51.23-129-78.82-192.81q-14.21-.19-28.42-.24c-2.84-8.34-4.26-12.48-7.09-20.73h73.79l12.76,22.17c-11-.39-16.55-.54-27.59-.78,32,63.7,62.94,127.86,93.25,192.4Z" transform="translate(0 -50.41)"/></g></g></svg>