<svg xmlns="http://www.w3.org/2000/svg" viewBox="0 0 175.84 164.92"><defs><style>.cls-1{fill:#efefef;}.cls-2{fill:#ce5f2e;}.cls-3{fill:none;stroke:#b3b3b3;stroke-miterlimit:10;stroke-width:78px;}.cls-4{fill:#994828;opacity:0.74;}.cls-5,.cls-7{fill:#fff;}.cls-6{fill:#474747;}.cls-7{font-size:12.54px;font-family:PTMono-Regular, PT Mono;}</style></defs><title>kw logo</title><g id="Layer_2" data-name="Layer 2"><g id="Layer_10" data-name="Layer 10"><rect class="cls-1" x="5.18" y="3.99" width="165.94" height="160.93" rx="41.75" ry="41.75"/><path class="cls-2" d="M161.49,82.9c0,39.16-32.73,70.91-73.11,70.91S15.26,122.06,15.26,82.9c0-29.32,18.35-54.49,44.52-65.28l.25-.1a74.19,74.19,0,0,1,15.34-4.41q3.31-.58,6.73-.86,3.1-.25,6.27-.26,2.36,0,4.68.14a75.36,75.36,0,0,1,8.33,1,74.42,74.42,0,0,1,8.66,2q3.16,1,6.2,2.17a73.41,73.41,0,0,1,10.61,5.27q2.43,1.45,4.72,3.09A72.7,72.7,0,0,1,139.29,32,71.7,71.7,0,0,1,153.74,51.1,68.87,68.87,0,0,1,161.49,82.9Z"/><line class="cls-3" x1="152.33" y1="31.11" x2="23.52" y2="128.47"/><path class="cls-4" d="M101.9,16.22c0,5-3.9,9.28-9.29,10.76a15.66,15.66,0,0,1-4.23.57A14.91,14.91,0,0,1,78.9,24.3a10.48,10.48,0,0,1-4-8.08,9.51,9.51,0,0,1,.52-3.1q3.31-.58,6.73-.86,3.1-.25,6.27-.26,2.36,0,4.68.14a75.36,75.36,0,0,1,8.33,1A9.51,9.51,0,0,1,101.9,16.22Z"/><path class="cls-4" d="M110,15.16a74.46,74.46,0,0,0-8.66-2,75.33,75.33,0,0,0-8.33-1,10.37,10.37,0,0,0-3.53,7.64A10.23,10.23,0,0,0,92.61,27,14.64,14.64,0,0,0,103,31.11a15.77,15.77,0,0,0,4-.5c5.54-1.42,9.56-5.73,9.56-10.84a9.42,9.42,0,0,0-.32-2.45Z"/><path class="cls-4" d="M110,15.16a10.83,10.83,0,0,0-5.4,9.06A10,10,0,0,0,107,30.61a14.38,14.38,0,0,0,11.17,4.94h.55c6.62-.22,12-4.44,12.86-9.86q-2.29-1.63-4.72-3.09a73.41,73.41,0,0,0-10.61-5.27Z"/><path class="cls-4" d="M144.45,37.4c-1.95,4-6.55,6.86-12,7h-.55c-6.47,0-11.88-3.81-13.21-8.9a9.55,9.55,0,0,1-.32-2.44c0-4.76,3.5-8.83,8.46-10.51q2.43,1.45,4.72,3.09A72.7,72.7,0,0,1,139.29,32,69.87,69.87,0,0,1,144.45,37.4Z"/><path class="cls-4" d="M153.7,51.1a15.15,15.15,0,0,1-8,2.24c-6.46,0-11.85-3.81-13.18-8.9a9.57,9.57,0,0,1-.32-2.44c0-4.32,2.88-8.08,7.12-10A71.68,71.68,0,0,1,153.7,51.1Z"/><path class="cls-4" d="M29,47.24c4.92,1.82,7.69,7,7.19,12.49a14.71,14.71,0,0,1-1,4.12c-2.71,6.91-9.88,10.67-16,8.41a10.32,10.32,0,0,1-2.86-1.6A71,71,0,0,1,20,58.22q.86-2.18,1.84-4.27a71.85,71.85,0,0,1,4-7.35A10.52,10.52,0,0,1,29,47.24Z"/><path class="cls-4" d="M30.94,39.33a72.22,72.22,0,0,0-9.13,14.62A10.85,10.85,0,0,0,28,60a11.2,11.2,0,0,0,8.19-.25A14.46,14.46,0,0,0,44,51.57,14.82,14.82,0,0,0,45,47.73c.62-5.63-2.16-10.92-7.16-12.76a10.42,10.42,0,0,0-2.51-.59Z"/><path class="cls-4" d="M30.94,39.33a11.16,11.16,0,0,0,6.93,8.27,11,11,0,0,0,7.12.13,14.3,14.3,0,0,0,8.9-8.54l.19-.51c2.18-6.21,0-12.72-5-15.46q-2.43,1.53-4.74,3.24a73.34,73.34,0,0,0-9,7.91Z"/><path class="cls-4" d="M65.23,15.56c3.22,3.25,4.35,8.54,2.56,13.62l-.19.51c-2.35,6-8,9.61-13.52,9a10.56,10.56,0,0,1-2.5-.59c-4.67-1.72-7.4-6.43-7.24-11.62q2.31-1.72,4.74-3.24a75.35,75.35,0,0,1,9-4.84A73.78,73.78,0,0,1,65.23,15.56Z"/><path class="cls-4" d="M81.31,20.19A15,15,0,0,1,78.9,24.3a12.8,12.8,0,0,1-11.1,4.88,10.55,10.55,0,0,1-2.5-.59,11.43,11.43,0,0,1-7.21-10.21l1.71-.76.25-.1a74.19,74.19,0,0,1,15.34-4.41q3.31-.58,6.73-.86A14.37,14.37,0,0,1,81.31,20.19Z"/><path class="cls-4" d="M78.33,118.12c-.84-5,2.29-9.77,7.36-12.09a15.57,15.57,0,0,1,4.08-1.23,15,15,0,0,1,9.9,1.72,10.62,10.62,0,0,1,5.34,7.33,9.49,9.49,0,0,1,0,3.14q-3.17,1.1-6.5,1.91-3,.74-6.14,1.24-2.33.37-4.64.6a75.44,75.44,0,0,1-8.38.35A9.58,9.58,0,0,1,78.33,118.12Z"/><path class="cls-4" d="M70.47,120.45a74.8,74.8,0,0,0,8.89.65,75.41,75.41,0,0,0,8.38-.35A10,10,0,0,0,85.69,106a14.75,14.75,0,0,0-11-2.43,15.68,15.68,0,0,0-3.82,1.12c-5.23,2.27-8.47,7.17-7.62,12.2a9.48,9.48,0,0,0,.73,2.36Z"/><path class="cls-4" d="M70.47,120.45a10.71,10.71,0,0,0,3.8-9.79,10.15,10.15,0,0,0-3.4-5.94A14.51,14.51,0,0,0,59,101.61l-.54.09C52,103,47.37,108,47.46,113.46q2.53,1.25,5.17,2.3A74.17,74.17,0,0,0,64,119.29Z"/><path class="cls-4" d="M32.8,103.94c1.25-4.26,5.31-7.8,10.63-8.84L44,95c6.38-1,12.36,1.88,14.52,6.7a9.61,9.61,0,0,1,.72,2.35c.8,4.69-2,9.27-6.58,11.7q-2.64-1.05-5.17-2.3a73.72,73.72,0,0,1-8.67-5A70.92,70.92,0,0,1,32.8,103.94Z"/><path class="cls-4" d="M25.58,98.71a17,17,0,0,1,6.6-2.45c5.48-.88,10.45.69,12.1,3.59a4.32,4.32,0,0,1,.52,1.43c.44,2.61-1.62,5.28-5,7a54.68,54.68,0,0,1-4.92-2.55A46.53,46.53,0,0,1,25.58,98.71Z"/><path class="cls-4" d="M145,76c-5.16-1-8.75-5.65-9.19-11.19a14.65,14.65,0,0,1,.27-4.22c1.51-7.24,8-12.09,14.4-10.82a10.44,10.44,0,0,1,3.09,1.13,70.56,70.56,0,0,1-1.48,12.84Q151.63,66,151,68.26a71.06,71.06,0,0,1-2.69,7.88A10.55,10.55,0,0,1,145,76Z"/><path class="cls-4" d="M144.47,84.12A71.35,71.35,0,0,0,151,68.26a11,11,0,0,0-7.14-5,11.16,11.16,0,0,0-8,1.54,14.26,14.26,0,0,0-6.36,9.29,14.75,14.75,0,0,0-.29,3.94c.34,5.66,4,10.43,9.21,11.46a10.46,10.46,0,0,0,2.58.18Z"/><path class="cls-4" d="M144.47,84.12a11.31,11.31,0,0,0-8.22-7.06,11,11,0,0,0-7.05,1,14.1,14.1,0,0,0-7.35,9.83c0,.18-.07.35-.1.53-1.11,6.47,2.13,12.56,7.53,14.46q2.14-1.89,4.13-3.95A72.26,72.26,0,0,0,141,89.7Z"/><path class="cls-4" d="M114.63,113a13.23,13.23,0,0,1-4.82-13c0-.18.06-.35.1-.53,1.31-6.27,6.32-10.75,11.83-11a10.61,10.61,0,0,1,2.57.19c4.89,1,8.38,5.18,9.09,10.33q-2,2.06-4.13,3.95a74.33,74.33,0,0,1-8.06,6.2A72.91,72.91,0,0,1,114.63,113Z"/><path class="cls-4" d="M98,111a14.85,14.85,0,0,1,1.69-4.44A12.65,12.65,0,0,1,109.81,100a10.6,10.6,0,0,1,2.57.19,11.58,11.58,0,0,1,8.83,8.93l-1.56,1-.23.14A73.47,73.47,0,0,1,105,117q-3.17,1.1-6.5,1.91A14.37,14.37,0,0,1,98,111Z"/><ellipse class="cls-5" cx="59.04" cy="74.01" rx="20.4" ry="22.01"/><ellipse class="cls-5" cx="110.84" cy="74.01" rx="20.4" ry="22.01"/><ellipse cx="59.25" cy="70.68" rx="16.48" ry="17.78"/><ellipse cx="111.2" cy="77.79" rx="16.48" ry="17.78"/><rect class="cls-6" x="31.98" y="105.35" width="108.18" height="31.12"/><text class="cls-7" transform="translate(36.62 118.03) scale(0.89 1)">KIERAN WILLIAMS<tspan x="0" y="15.05">SOFTWARE</tspan></text></g></g></svg>